<?xml version="1.0" encoding="UTF-8" standalone="no"?>
<!DOCTYPE svg PUBLIC "-//W3C//DTD SVG 1.1//EN" "http://www.w3.org/Graphics/SVG/1.1/DTD/svg11.dtd">
<svg width="100%" height="100%" viewBox="0 0 1200 1200" version="1.1" xmlns="http://www.w3.org/2000/svg" xmlns:xlink="http://www.w3.org/1999/xlink" xml:space="preserve" xmlns:serif="http://www.serif.com/" style="fill-rule:evenodd;clip-rule:evenodd;stroke-linejoin:round;stroke-miterlimit:2;">
    <rect id="favicon" x="0" y="0" width="1200" height="1200" style="fill:none;"/>
    <clipPath id="_clip1">
        <rect id="favicon1" serif:id="favicon" x="0" y="0" width="1200" height="1200"/>
    </clipPath>
    <g clip-path="url(#_clip1)">
        <g transform="matrix(1.28162,0,0,1.28984,-36.322,-24.9273)">
            <rect x="26" y="17" width="941" height="935"/>
        </g>
        <g transform="matrix(0.944828,0,0,0.954206,28.0306,27.4762)">
            <g transform="matrix(0.996411,0,0,0.996411,38.6904,4.11269)">
                <g transform="matrix(5.39582e-16,-8.81204,8.81204,5.39582e-16,-17924.1,5290.27)">
                    <path d="M487.055,2038.72L487.055,2064.39C487.037,2067.93 485.455,2069.8 482.579,2069.8C479.866,2069.8 478.104,2068.11 478.05,2065.18L470.304,2065.18C470.268,2072.53 475.516,2076.03 482.184,2076.03C489.643,2076.03 494.729,2071.52 494.747,2064.39L494.747,2038.72L487.055,2038.72Z" style="fill:rgb(217,217,217);fill-rule:nonzero;"/>
                </g>
                <g transform="matrix(5.39582e-16,-8.81204,8.81204,5.39582e-16,-17924.1,5238.42)">
                    <path d="M507.813,2038.72L499.168,2038.72L511.875,2075.53L521.903,2075.53L534.592,2038.72L525.965,2038.72L517.051,2066.69L516.709,2066.69L507.813,2038.72Z" style="fill:rgb(217,217,217);fill-rule:nonzero;"/>
                </g>
                <g transform="matrix(1.00092e-15,-16.3463,8.81204,5.39582e-16,-17924.1,9418.16)">
                    <rect x="547.55" y="2054.09" width="25.305" height="6.075" style="fill:rgb(217,217,217);fill-rule:nonzero;"/>
                </g>
                <g transform="matrix(5.39582e-16,-8.81204,8.81204,5.39582e-16,-17540,6325.56)">
                    <path d="M587.79,2038.72L587.79,2075.53L595.339,2075.53L595.339,2051.48L595.644,2051.48L605.17,2075.35L610.31,2075.35L619.835,2051.57L620.141,2051.57L620.141,2075.53L627.689,2075.53L627.689,2038.72L618.092,2038.72L607.955,2063.45L607.524,2063.45L597.387,2038.72L587.79,2038.72Z" style="fill:rgb(217,217,217);fill-rule:nonzero;"/>
                </g>
                <g transform="matrix(5.39582e-16,-8.81204,8.81204,5.39582e-16,-17540,6273.71)">
                    <path d="M664.874,2038.72L657.128,2038.72L657.128,2061.87L656.804,2061.87L640.917,2038.72L634.087,2038.72L634.087,2075.53L641.869,2075.53L641.869,2052.36L642.139,2052.36L658.152,2075.53L664.874,2075.53L664.874,2038.72Z" style="fill:rgb(217,217,217);fill-rule:nonzero;"/>
                </g>
                <g transform="matrix(5.39582e-16,-8.81204,8.81204,5.39582e-16,-17540,6223.54)">
                    <path d="M669.888,2045.14L681.157,2045.14L681.157,2075.53L688.849,2075.53L688.849,2045.14L700.118,2045.14L700.118,2038.72L669.888,2038.72L669.888,2045.14Z" style="fill:rgb(217,217,217);fill-rule:nonzero;"/>
                </g>
            </g>
            <g transform="matrix(0.769231,0,0,1.01575,207.154,-18.0461)">
                <rect x="811" y="71" width="26" height="1074.93" style="fill:rgb(217,217,217);"/>
            </g>
            <g transform="matrix(1.53846,0,0,1.01575,-376.692,-18.0461)">
                <rect x="811" y="71" width="26" height="1074.93" style="fill:rgb(217,217,217);"/>
            </g>
            <g transform="matrix(3.07692,0,0,1.01575,-1564.38,-18.0461)">
                <rect x="811" y="71" width="26" height="1074.93" style="fill:rgb(217,217,217);"/>
            </g>
            <g transform="matrix(3.84615,0,0,1.01575,-2088.23,-18.0461)">
                <rect x="811" y="71" width="26" height="1074.93" style="fill:rgb(217,217,217);"/>
            </g>
        </g>
    </g>
</svg>
